<svg width="63" height="81" viewBox="0 0 63 81" fill="none" xmlns="http://www.w3.org/2000/svg">
<path d="M33.0815 23.1435L36.6345 36.3394C36.7735 36.8556 37.1767 37.2589 37.693 37.3979L50.8889 40.9508C51.3822 41.0837 51.3822 41.7836 50.8889 41.9164L37.693 45.4694C37.1767 45.6084 36.7735 46.0116 36.6345 46.5279L33.0815 59.7238C32.9487 60.2171 32.2488 60.2171 32.1159 59.7238L28.563 46.5279C28.424 46.0116 28.0207 45.6084 27.5045 45.4694L14.3086 41.9164C13.8153 41.7836 13.8153 41.0837 14.3086 40.9508L27.5045 37.3979C28.0207 37.2589 28.424 36.8556 28.563 36.3394L32.1159 23.1435C32.2488 22.6502 32.9487 22.6502 33.0815 23.1435Z" stroke="#0A1215"/>
<line x1="32.5" y1="23.5" x2="32.5" y2="59.5" stroke="#0A1215" stroke-linecap="round"/>
<line x1="50.5001" y1="41.5001" x2="14.5" y2="41.5044" stroke="#0A1215" stroke-linecap="round"/>
<path d="M28.1181 36.935L37.2065 46.1197" stroke="#0A1215"/>
<line x1="37.2966" y1="37.2874" x2="28.2352" y2="46.09" stroke="#0A1215"/>
<path d="M51.0965 38.7844C50.4578 34.8414 48.6027 31.1966 45.7905 28.3599C42.9784 25.5231 39.3499 23.6363 35.4126 22.9632L35.3546 23.3027C39.2211 23.9637 42.7843 25.8166 45.5459 28.6024C48.3075 31.3881 50.1293 34.9674 50.7565 38.8395L51.0965 38.7844Z" stroke="#0A1215" stroke-linejoin="round"/>
<path d="M13.2726 44.9113C13.9113 48.8543 15.7665 52.4991 18.5786 55.3358C21.3908 58.1726 25.0192 60.0595 28.9565 60.7325L29.0145 60.3936C25.1478 59.7326 21.5845 57.8796 18.8228 55.0938C16.0611 52.3079 14.2393 48.7286 13.612 44.8563L13.2726 44.9113Z" stroke="#0A1215" stroke-linejoin="round"/>
<path d="M28.8559 22.9807C24.9223 23.6747 21.3039 25.5808 18.5069 28.4325C15.7099 31.2842 13.8742 34.9388 13.2565 38.8852L13.598 38.9386C14.2046 35.0635 16.0072 31.4748 18.7537 28.6746C21.5002 25.8744 25.0533 24.0026 28.916 23.3211L28.8559 22.9807Z" stroke="#0A1215" stroke-linejoin="round"/>
<path d="M35.5132 60.7151C39.4469 60.0211 43.0652 58.1149 45.8622 55.2633C48.6592 52.4116 50.495 48.757 51.1127 44.8106L50.7682 44.7567C50.1618 48.6313 48.3594 52.2194 45.6133 55.0192C42.8672 57.8189 39.3147 59.6904 35.4526 60.3718L35.5132 60.7151Z" stroke="#0A1215" stroke-linejoin="round"/>
<path d="M27.0064 34.1401L21.4104 31.3328L24.2178 36.9288" stroke="#0A1215" stroke-linecap="round" stroke-linejoin="round"/>
<path d="M27.0064 49.5556L21.4104 52.3629L24.2178 46.767" stroke="#0A1215" stroke-linecap="round" stroke-linejoin="round"/>
<path d="M37.3623 34.1401L42.9582 31.3328L40.1509 36.9288" stroke="#0A1215" stroke-linecap="round" stroke-linejoin="round"/>
<path d="M37.3623 49.5556L42.9582 52.3629L40.1509 46.767" stroke="#0A1215" stroke-linecap="round" stroke-linejoin="round"/>
<path d="M38.9038 16.9308H35.069V16.7577C35.6228 16.7024 35.9735 16.5708 36.1211 16.3632C36.2734 16.1555 36.3496 15.6871 36.3496 14.958V7.18459L33.5046 9.14352V18.6751L32.7778 20.2603L32.7847 9.15736L29.7944 7.16382V14.5012C29.7944 15.4472 29.9121 16.0678 30.1475 16.3632C30.2997 16.5524 30.6251 16.6839 31.1235 16.7577V16.9308H26.9633V16.7577C27.6094 16.6654 28.0178 16.4255 28.1885 16.0378C28.29 15.8071 28.3408 15.2949 28.3408 14.5012V7.58606C28.3408 6.96308 28.2531 6.55007 28.0778 6.34702C27.9116 6.15782 27.5517 6.04246 26.9979 6.00092V5.81403H30.1959L33.1931 7.94601L36.308 5.81403H38.9038V6.00092C38.3962 6.04246 38.0616 6.16705 37.9001 6.37471C37.7386 6.57776 37.6578 6.98154 37.6578 7.58606V15.1587C37.6578 15.791 37.7386 16.2017 37.9001 16.3909C38.0432 16.557 38.3777 16.6793 38.9038 16.7577V16.9308Z" fill="#0A1215"/>
<path d="M54.316 46.6954C54.8744 46.6216 55.2251 46.4901 55.3682 46.3009C55.4974 46.1301 55.562 45.7494 55.562 45.1587V37.5861C55.562 37.0138 55.4951 36.6377 55.3613 36.4578C55.2044 36.2455 54.8559 36.114 54.316 36.0632V35.7448H62.311L61.6326 38.1883H61.2727C61.3557 37.4407 61.3073 36.9562 61.1273 36.7347C60.9519 36.5085 60.3728 36.3955 59.3899 36.3955H57.4655C57.2625 36.3955 57.131 36.4416 57.071 36.5339C57.0295 36.5985 57.0087 36.7416 57.0087 36.9631V40.7633H60.5043L59.1891 41.4347H57.0087V45.6433C57.0087 45.9848 57.0941 46.1855 57.2648 46.2455C57.4355 46.3055 57.9709 46.3355 58.8707 46.3355C59.8813 46.3355 60.5966 46.2017 61.0165 45.934C61.478 45.6433 61.8818 45.0411 62.2279 44.1274H62.6224L61.9787 47H54.316V46.6954Z" fill="#0A1215"/>
<path d="M37.4182 67.593C36.9106 67.6345 36.576 67.7568 36.4145 67.9599C36.3222 68.0752 36.1261 68.3821 35.8261 68.8805V78.689L34.7601 80.4956L34.7532 68.7074L30.4546 67.1984V74.5012C30.4546 75.4472 30.5723 76.0678 30.8077 76.3632C30.9599 76.5524 31.2853 76.6839 31.7837 76.7577V76.9308H27.6235V76.7577C28.2696 76.6654 28.678 76.4255 28.8487 76.0378C28.9502 75.8071 29.001 75.2949 29.001 74.5012V67.5861C29.001 66.9631 28.9133 66.5501 28.738 66.347C28.5718 66.1578 28.2119 66.0425 27.6581 66.0009V65.814H30.863L34.7878 67.3992L37.4182 67.4061V67.593Z" fill="#0A1215"/>
<path d="M8.13842 37.5445C8.13842 36.9308 8.05997 36.5339 7.90307 36.3539C7.76001 36.1878 7.42083 36.0725 6.88553 36.0078V35.7033H10.8242V36.0078C10.2335 36.0817 9.86661 36.2386 9.72356 36.4785C9.62665 36.6493 9.57819 37.0715 9.57819 37.7453V38.8043C9.49513 39.5842 9.40284 40.2903 9.30131 40.9225C9.05674 42.4407 8.79139 43.4698 8.50528 44.0097C8.13611 44.7111 7.76463 45.2833 7.39084 45.7263C7.01705 46.1647 6.51636 46.6262 5.88876 47.1108C5.22425 46.6493 4.69356 46.197 4.2967 45.754C3.89984 45.3064 3.50759 44.725 3.11996 44.0097C2.4739 42.8237 2.11627 41.1255 2.04705 38.9151V37.7453C2.04705 37.0715 1.99859 36.6493 1.90168 36.4785C1.75863 36.2386 1.39176 36.0817 0.801084 36.0078V35.7033H4.73971V36.0078C4.20441 36.0725 3.86523 36.1878 3.72217 36.3539C3.56527 36.5339 3.48682 36.9308 3.48682 37.5445V39.5865C3.46837 41.3493 3.62296 42.6945 3.9506 43.6221C4.21364 44.3696 4.46283 44.9465 4.69818 45.3526C4.98429 45.8417 5.38576 46.3355 5.90261 46.8339C6.65941 45.9663 7.25009 44.8957 7.67464 43.6221C7.94229 42.8237 8.09688 41.4716 8.13842 39.5658V37.5445Z" fill="#0A1215"/>
</svg>
